# xmcd
# 
# Track frame offsets:
#     150
#     18307
#     32850
#     48524
#     67063
#     82882
#     98486
#     110998
#     127609
#     142680
#     159949
# 
# Disc length: 2377
# 
# Revision: 0
# Processed by: cddbd v1.5.2PL0 Copyright (c) Steve Scherf et al.
# Submitted via: fre:ac v1.0.31
# 
DISCID=8109470b
DTITLE=Shannon Mock - Absolute Crazy
DYEAR=2005
DGENRE=Country
TTITLE0=I've Forgotten You
TTITLE1=Leave the Pieces
TTITLE2=Every Third Chevrolet
TTITLE3=Reasons
TTITLE4=My Roots Are Showing
TTITLE5=No One Left To Lie To
TTITLE6=Passin' Time
TTITLE7=Whiskey and Wine
TTITLE8=Taillights To Me Now
TTITLE9=Has Anybody Ever
TTITLE10=Absolute Crazy
EXTD=
EXTT0=
EXTT1=
EXTT2=
EXTT3=
EXTT4=
EXTT5=
EXTT6=
EXTT7=
EXTT8=
EXTT9=
EXTT10=
PLAYORDER=
